<svg width="141" height="36" viewBox="0 0 141 36" fill="none" xmlns="http://www.w3.org/2000/svg">
<path d="M6.84375 0.875V35H0.398438V0.875H6.84375ZM36.4266 0.875V35H29.9578L15.45 11.3281V35H9.00468V0.875H15.45L30.0047 24.5703V0.875H36.4266ZM56.0484 26.1406C56.0484 25.4844 55.9469 24.8984 55.7437 24.3828C55.5562 23.8516 55.2047 23.375 54.6891 22.9531C54.1891 22.5156 53.4781 22.0938 52.5562 21.6875C51.65 21.2656 50.4781 20.8281 49.0406 20.375C47.4469 19.875 45.9625 19.3125 44.5875 18.6875C43.2125 18.0625 42.0016 17.3359 40.9547 16.5078C39.9234 15.6797 39.1187 14.7266 38.5406 13.6484C37.9625 12.5547 37.6734 11.2891 37.6734 9.85156C37.6734 8.44531 37.9703 7.16406 38.5641 6.00781C39.1734 4.85156 40.0328 3.85937 41.1422 3.03125C42.2516 2.1875 43.5562 1.53906 45.0562 1.08594C46.5719 0.632813 48.2437 0.40625 50.0719 0.40625C52.6031 0.40625 54.7906 0.867188 56.6344 1.78906C58.4937 2.71094 59.9312 3.96094 60.9469 5.53906C61.9625 7.11719 62.4703 8.89062 62.4703 10.8594H56.0484C56.0484 9.79688 55.8219 8.85938 55.3687 8.04688C54.9312 7.23438 54.2594 6.59375 53.3531 6.125C52.4625 5.65625 51.3375 5.42188 49.9781 5.42188C48.6656 5.42188 47.5719 5.61719 46.6969 6.00781C45.8375 6.39844 45.1891 6.92969 44.7516 7.60156C44.3297 8.27344 44.1187 9.02344 44.1187 9.85156C44.1187 10.4766 44.2672 11.0391 44.5641 11.5391C44.8609 12.0234 45.3062 12.4844 45.9 12.9219C46.4937 13.3438 47.2281 13.7422 48.1031 14.1172C48.9937 14.4766 50.025 14.8359 51.1969 15.1953C53.0719 15.7578 54.7125 16.3828 56.1187 17.0703C57.5406 17.7578 58.7203 18.5391 59.6578 19.4141C60.6109 20.2891 61.3219 21.2734 61.7906 22.3672C62.275 23.4609 62.5172 24.7031 62.5172 26.0938C62.5172 27.5625 62.2281 28.875 61.65 30.0312C61.0719 31.1875 60.2437 32.1719 59.1656 32.9844C58.0875 33.7969 56.7906 34.4141 55.275 34.8359C53.775 35.2578 52.0953 35.4688 50.2359 35.4688C48.5797 35.4688 46.9391 35.25 45.3141 34.8125C43.7047 34.3594 42.2437 33.6875 40.9312 32.7969C39.6187 31.8906 38.5719 30.75 37.7906 29.375C37.0094 27.9844 36.6187 26.3594 36.6187 24.5H43.0875C43.0875 25.5781 43.2594 26.5 43.6031 27.2656C43.9625 28.0156 44.4625 28.6328 45.1031 29.1172C45.7594 29.5859 46.525 29.9297 47.4 30.1484C48.275 30.3672 49.2203 30.4766 50.2359 30.4766C51.5484 30.4766 52.6266 30.2969 53.4703 29.9375C54.3297 29.5625 54.9703 29.0469 55.3922 28.3906C55.8297 27.7344 56.0484 26.9844 56.0484 26.1406ZM78.4594 4.15625L62.2406 35H57.5297L76.0922 0.875H79.1156L78.4594 4.15625ZM82.35 35L76.7016 3.64062L77.1469 0.875H79.9594L86.6859 35H82.35ZM83.9203 22.3672L83.2641 26.0703H64.6313L65.2875 22.3672H83.9203ZM115.683 0.875V35H109.214L94.7063 11.3281V35H88.2609V0.875H94.7063L109.261 24.5703V0.875H115.683ZM140.062 29.9375V35H121.922V29.9375H140.062ZM123.891 0.875V35H117.445V0.875H123.891ZM137.695 14.9609V19.9062H121.922V14.9609H137.695ZM139.992 0.875V5.96094H121.922V0.875H139.992Z" fill="#7159C1"/>
</svg>
